<svg width="1615" height="518" viewBox="0 0 1615 518" fill="none" xmlns="http://www.w3.org/2000/svg">
<g clip-path="url(#clip0_4_2)">
<path d="M1163.08 71.147L1112.22 203.632L1111.3 203.279L1162.15 70.7939L1163.08 71.147ZM1163.08 71.147L1162.17 70.7939L1111.3 203.266L1193.35 234.759L1244.2 102.274L1163.08 71.147ZM1160.2 231.882C1159.75 233.059 1158.43 233.66 1157.24 233.216L1140.1 226.637C1138.92 226.179 1138.34 224.846 1138.79 223.668L1139.2 222.596C1139.66 221.419 1140.98 220.83 1142.16 221.275L1159.29 227.854C1160.47 228.311 1161.05 229.632 1160.61 230.809L1160.2 231.882ZM1207.96 81.4659C1207.53 82.5776 1206.28 83.1269 1205.18 82.7084C1204.07 82.2768 1203.52 81.0344 1203.94 79.9358C1204.37 78.8241 1205.62 78.2748 1206.71 78.6933C1207.83 79.1118 1208.38 80.3543 1207.96 81.4529C1207.96 81.4529 1207.96 81.4529 1207.96 81.4659ZM1197.66 70.2969C1197.89 69.7084 1199.04 69.6037 1200.21 70.0484L1217.35 76.6269C1218.53 77.0846 1219.31 77.9217 1219.07 78.5102L1218.87 79.0595C1218.64 79.648 1217.49 79.7527 1216.32 79.3211L1199.18 72.7164C1198 72.2587 1197.23 71.4217 1197.45 70.82L1197.66 70.2969ZM1239.77 80.6289L1180.87 58.0293C1171.26 54.3673 1160.51 59.154 1156.79 68.7406L1105.93 201.226C1102.26 210.838 1107.06 221.589 1116.65 225.303L1175.53 247.903C1185.15 251.565 1195.9 246.765 1199.61 237.179L1250.48 104.693C1254.14 95.0937 1249.35 84.3301 1239.77 80.6289ZM1557.63 198.139L1563.04 194.569L1565.51 198.296L1560.11 201.867L1557.63 198.139Z" stroke="#1D1D1B" stroke-width="1.5" stroke-miterlimit="10"/>
<path d="M1481.11 308.561C1476.62 311.53 1470.58 310.3 1467.6 305.815L1318.62 80.7467C1315.65 76.2607 1316.88 70.2185 1321.37 67.2366L1411.66 7.48092C1416.14 4.5121 1422.18 5.74148 1425.17 10.2274L1574.14 235.295C1577.11 239.781 1575.88 245.823 1571.39 248.805L1481.11 308.561ZM1563.04 194.543L1565.51 198.27L1560.11 201.84L1557.63 198.113L1563.04 194.543ZM1578.22 232.601L1561.24 206.954L1570.24 201.003C1571.37 200.258 1571.68 198.741 1570.94 197.616L1570.1 196.361C1576.44 192.829 1581.32 187.153 1583.86 180.352C1588.17 168.856 1586.02 154.549 1577.45 137.847C1572.27 127.751 1571.48 118.4 1575.11 110.042C1583.37 90.9871 1611.97 82.5646 1612.25 82.4861C1613.55 82.1068 1614.31 80.7597 1613.94 79.4519L1613.63 78.7849C1613.04 77.8955 1611.95 77.4901 1610.92 77.7778C1609.65 78.144 1579.84 86.8543 1570.63 108.081C1566.4 117.85 1567.22 128.614 1573.12 140.071C1581.02 155.464 1583.11 168.412 1579.33 178.548C1577.12 184.394 1572.9 189.246 1567.4 192.241L1565.8 189.795C1565.05 188.67 1563.53 188.357 1562.41 189.102L1553.41 195.053L1429.26 7.53323C1424.8 0.797806 1415.72 -1.04626 1408.97 3.40043L1318.7 63.1561C1311.96 67.6289 1310.12 76.6923 1314.57 83.4408L1463.54 308.509C1468 315.244 1477.08 317.088 1483.83 312.641L1574.1 252.886C1580.84 248.413 1582.68 239.35 1578.23 232.601H1578.22Z" stroke="#1D1D1B" stroke-width="1.5" stroke-miterlimit="10"/>
<path d="M1414.86 27.5957L1419.93 35.2727L1415.38 38.2808L1410.29 30.6037L1414.85 27.5957H1414.86ZM1405.77 31.1661L1413.11 42.2567C1413.73 43.1983 1415 43.4599 1415.95 42.8321L1423.92 37.5615C1424.87 36.9337 1425.13 35.6651 1424.5 34.7365L1417.16 23.646C1416.53 22.7043 1415.27 22.4427 1414.32 23.0705L1406.35 28.3411C1405.4 28.9689 1405.14 30.2375 1405.77 31.1661Z" stroke="#1D1D1B" stroke-width="1.5" stroke-miterlimit="10"/>
<path d="M1426.26 54.7205L1421.18 47.0434L1425.73 44.0353L1430.82 51.7124L1426.26 54.7205ZM1435.36 51.15L1428.02 40.0595C1427.39 39.1178 1426.12 38.8563 1425.18 39.484L1417.21 44.7547C1416.27 45.3824 1416.01 46.651 1416.64 47.5796L1423.98 58.6702C1424.6 59.6118 1425.87 59.8734 1426.81 59.2456L1434.78 53.975C1435.72 53.3472 1435.98 52.0786 1435.36 51.137V51.15Z" stroke="#1D1D1B" stroke-width="1.5" stroke-miterlimit="10"/>
<path d="M1440.09 75.6068L1435 67.9297L1439.55 64.9217L1444.64 72.5987L1440.09 75.6068ZM1449.18 72.0495L1441.84 60.9589C1441.21 60.0172 1439.95 59.7557 1439 60.3834L1431.04 65.6541C1430.1 66.2818 1429.84 67.5504 1430.46 68.4921L1437.8 79.5827C1438.43 80.5243 1439.7 80.7859 1440.64 80.1581L1448.6 74.8875C1449.55 74.2728 1449.81 73.0042 1449.18 72.0625V72.0495Z" stroke="#1D1D1B" stroke-width="1.5" stroke-miterlimit="10"/>
<path d="M1450.44 81.3482L1455.51 89.0253L1450.96 92.0334L1445.87 84.3563L1450.42 81.3482H1450.44ZM1441.35 84.9056L1448.68 95.9962C1449.31 96.9378 1450.58 97.1994 1451.52 96.5716L1459.5 91.301C1460.44 90.6732 1460.7 89.4046 1460.07 88.476L1452.74 77.3855C1452.11 76.4438 1450.84 76.1822 1449.9 76.81L1441.92 82.0806C1440.98 82.7084 1440.72 83.977 1441.35 84.9056Z" stroke="#1D1D1B" stroke-width="1.5" stroke-miterlimit="10"/>
<path d="M1464.26 102.235L1469.34 109.912L1464.78 112.92L1459.7 105.243L1464.25 102.235H1464.26ZM1455.17 105.805L1462.51 116.896C1463.14 117.837 1464.4 118.099 1465.35 117.471L1473.32 112.2C1474.27 111.573 1474.53 110.304 1473.9 109.375L1466.56 98.2849C1465.93 97.3433 1464.67 97.0817 1463.72 97.7095L1455.75 102.98C1454.8 103.608 1454.54 104.877 1455.17 105.805Z" stroke="#1D1D1B" stroke-width="1.5" stroke-miterlimit="10"/>
<path d="M1475.13 118.661L1480.2 126.338L1475.65 129.346L1470.56 121.669L1475.12 118.661H1475.13ZM1466.04 122.219L1473.38 133.309C1474 134.251 1475.27 134.512 1476.22 133.885L1484.19 128.614C1485.14 127.986 1485.4 126.718 1484.77 125.776L1477.43 114.685C1476.8 113.744 1475.53 113.482 1474.59 114.11L1466.61 119.381C1465.67 120.008 1465.41 121.277 1466.04 122.205V122.219Z" stroke="#1D1D1B" stroke-width="1.5" stroke-miterlimit="10"/>
<path d="M1488.97 139.548L1494.04 147.225L1489.49 150.233L1484.4 142.556L1488.95 139.548H1488.97ZM1479.88 143.118L1487.21 154.209C1487.84 155.15 1489.11 155.412 1490.05 154.784L1498.03 149.513C1498.97 148.886 1499.23 147.617 1498.61 146.688L1491.27 135.598C1490.64 134.656 1489.37 134.395 1488.43 135.022L1480.45 140.293C1479.51 140.921 1479.25 142.189 1479.88 143.118Z" stroke="#1D1D1B" stroke-width="1.5" stroke-miterlimit="10"/>
<path d="M1500.36 166.659L1495.28 158.982L1499.84 155.974L1504.92 163.651L1500.37 166.659H1500.36ZM1509.45 163.102L1502.11 152.011C1501.48 151.07 1500.22 150.808 1499.27 151.436L1491.31 156.707C1490.37 157.334 1490.11 158.603 1490.73 159.532L1498.07 170.622C1498.7 171.564 1499.97 171.825 1500.91 171.198L1508.87 165.927C1509.82 165.312 1510.08 164.044 1509.45 163.102Z" stroke="#1D1D1B" stroke-width="1.5" stroke-miterlimit="10"/>
<path d="M1514.18 187.559L1509.1 179.882L1513.65 176.874L1518.74 184.551L1514.18 187.559ZM1523.29 183.988L1515.95 172.898C1515.32 171.956 1514.05 171.695 1513.11 172.322L1505.15 177.593C1504.2 178.221 1503.94 179.489 1504.57 180.431L1511.91 191.522C1512.54 192.463 1513.8 192.725 1514.75 192.097L1522.71 186.826C1523.65 186.212 1523.92 184.943 1523.29 184.001V183.988Z" stroke="#1D1D1B" stroke-width="1.5" stroke-miterlimit="10"/>
<path d="M1525.07 203.972L1519.99 196.295L1524.54 193.287L1529.63 200.964L1525.08 203.972H1525.07ZM1534.16 200.415L1526.83 189.324C1526.2 188.383 1524.94 188.121 1523.99 188.749L1516.03 194.02C1515.09 194.647 1514.83 195.916 1515.45 196.858L1522.79 207.948C1523.42 208.89 1524.69 209.151 1525.63 208.524L1533.59 203.253C1534.54 202.638 1534.8 201.37 1534.17 200.428H1534.16V200.415ZM1538.37 214.187L1543.46 221.864L1538.9 224.872L1533.82 217.195L1538.37 214.187ZM1529.26 217.744L1536.59 228.835C1537.22 229.776 1538.49 230.038 1539.43 229.41L1547.39 224.139C1548.33 223.512 1548.6 222.243 1547.97 221.301L1540.63 210.211C1540 209.269 1538.73 209.007 1537.79 209.635L1529.83 214.906C1528.89 215.521 1528.62 216.789 1529.25 217.731H1529.26V217.744Z" stroke="#1D1D1B" stroke-width="1.5" stroke-miterlimit="10"/>
<path d="M1549.24 230.6L1554.31 238.277L1549.76 241.285L1544.67 233.608L1549.22 230.6H1549.24ZM1540.13 234.17L1547.47 245.261C1548.1 246.203 1549.37 246.464 1550.31 245.837L1558.29 240.566C1559.23 239.938 1559.49 238.669 1558.86 237.741L1551.53 226.65C1550.9 225.709 1549.63 225.447 1548.69 226.075L1540.71 231.346C1539.77 231.973 1539.51 233.242 1540.13 234.17Z" stroke="#1D1D1B" stroke-width="1.5" stroke-miterlimit="10"/>
<path d="M1400.58 37.0644L1405.66 44.7415L1397.7 50.0122L1392.61 42.3351L1400.58 37.0644ZM1388.07 42.8844L1395.4 53.9749C1396.03 54.9166 1397.29 55.1782 1398.24 54.5504L1409.61 47.0172C1410.56 46.3894 1410.82 45.1208 1410.19 44.1791L1402.87 33.0886C1402.24 32.1469 1400.97 31.8854 1400.03 32.5131L1388.65 40.0463C1387.71 40.6741 1387.45 41.9427 1388.07 42.8844ZM1408.57 66.4257L1403.48 58.7486L1411.45 53.478L1416.53 61.155L1408.57 66.4257ZM1421.07 60.6057L1413.75 49.5152C1413.12 48.5735 1411.85 48.312 1410.91 48.9397L1399.53 56.4599C1398.59 57.0876 1398.33 58.3562 1398.96 59.2979L1406.28 70.3885C1406.91 71.3301 1408.18 71.5917 1409.12 70.9639L1420.5 63.4307C1421.44 62.8029 1421.7 61.5343 1421.07 60.5927V60.6057ZM1422.39 87.3251L1417.31 79.648L1425.27 74.3774L1430.36 82.0545L1422.39 87.3251ZM1434.9 81.5052L1427.57 70.4146C1426.94 69.473 1425.68 69.2114 1424.73 69.8392L1413.36 77.3593C1412.41 77.9871 1412.15 79.2557 1412.78 80.1973L1420.1 91.2879C1420.73 92.2296 1422 92.4911 1422.94 91.8633L1434.32 84.3432C1435.26 83.7154 1435.52 82.4468 1434.9 81.5052ZM1436.14 90.804L1441.23 98.4811L1433.26 103.752L1428.17 96.0746L1436.14 90.804ZM1423.64 96.6239L1430.96 107.714C1431.59 108.656 1432.86 108.918 1433.8 108.29L1445.18 100.77C1446.12 100.142 1446.38 98.8734 1445.75 97.9318L1438.43 86.8412C1437.8 85.8996 1436.53 85.638 1435.59 86.2658L1424.21 93.7859C1423.27 94.4137 1423.01 95.6823 1423.64 96.6239ZM1449.98 111.69L1455.07 119.367L1447.1 124.638L1442.01 116.961L1449.98 111.69ZM1437.47 117.51L1444.8 128.601C1445.43 129.542 1446.69 129.804 1447.64 129.176L1459.02 121.656C1459.96 121.028 1460.22 119.76 1459.59 118.818L1452.27 107.728C1451.64 106.786 1450.37 106.524 1449.43 107.152L1438.05 114.672C1437.11 115.3 1436.85 116.569 1437.47 117.51ZM1460.85 128.117L1465.93 135.794L1457.97 141.065L1452.88 133.388L1460.85 128.117ZM1448.34 133.937L1455.67 145.027C1456.3 145.969 1457.56 146.231 1458.51 145.603L1469.88 138.07C1470.83 137.442 1471.09 136.173 1470.46 135.232L1463.14 124.141C1462.51 123.199 1461.24 122.938 1460.3 123.566L1448.92 131.086C1447.98 131.714 1447.72 132.982 1448.34 133.924V133.937ZM1474.67 149.003L1479.76 156.68L1471.79 161.951L1466.71 154.274L1474.67 149.003ZM1462.17 154.823L1469.49 165.914C1470.12 166.855 1471.39 167.117 1472.33 166.489L1483.71 158.969C1484.65 158.341 1484.91 157.073 1484.28 156.131L1476.96 145.041C1476.33 144.099 1475.06 143.837 1474.12 144.465L1462.74 151.998C1461.8 152.626 1461.54 153.895 1462.17 154.836V154.823ZM1482.66 178.365L1477.58 170.687L1485.54 165.417L1490.63 173.094L1482.66 178.365ZM1495.17 172.545L1487.84 161.454C1487.21 160.512 1485.95 160.251 1485 160.879L1473.63 168.412C1472.68 169.026 1472.42 170.295 1473.05 171.237L1480.37 182.327C1481 183.269 1482.27 183.531 1483.21 182.903L1494.59 175.383C1495.53 174.755 1495.79 173.486 1495.17 172.545ZM1496.49 199.264L1491.4 191.587L1499.37 186.316L1504.45 193.993L1496.49 199.264ZM1508.99 193.444L1501.67 182.353C1501.04 181.412 1499.77 181.15 1498.83 181.778L1487.45 189.311C1486.51 189.939 1486.25 191.208 1486.87 192.149L1494.2 203.24C1494.83 204.181 1496.1 204.443 1497.04 203.815L1508.42 196.295C1509.36 195.667 1509.62 194.399 1508.99 193.457V193.444ZM1507.36 215.691L1502.27 208.013L1510.23 202.743L1515.32 210.42L1507.36 215.691ZM1519.86 209.871L1512.54 198.78C1511.91 197.838 1510.64 197.577 1509.7 198.205L1498.32 205.738C1497.38 206.366 1497.12 207.634 1497.74 208.576L1505.07 219.666C1505.7 220.608 1506.96 220.87 1507.91 220.242L1519.29 212.722C1520.23 212.094 1520.49 210.825 1519.86 209.884V209.871ZM1524.07 223.642L1529.16 231.319L1521.19 236.59L1516.11 228.913L1524.07 223.642ZM1511.57 229.462L1518.89 240.553C1519.52 241.494 1520.79 241.756 1521.73 241.128L1533.11 233.595C1534.05 232.967 1534.31 231.699 1533.69 230.757L1526.36 219.666C1525.73 218.725 1524.46 218.463 1523.52 219.091L1512.14 226.611C1511.2 227.239 1510.94 228.507 1511.57 229.449V229.462Z" stroke="#1D1D1B" stroke-width="1.5" stroke-miterlimit="10"/>
<path d="M1386.15 111.324L1381.06 103.647L1389.03 98.3765L1394.12 106.054L1386.15 111.324ZM1398.65 105.504L1391.32 94.4137C1390.69 93.4721 1389.42 93.2105 1388.48 93.8383L1377.1 101.371C1376.16 101.999 1375.9 103.268 1376.52 104.21L1383.86 115.3C1384.49 116.242 1385.76 116.503 1386.7 115.876L1398.08 108.342C1399.02 107.728 1399.28 106.459 1398.65 105.517V105.504Z" stroke="#1D1D1B" stroke-width="1.5" stroke-miterlimit="10"/>
<path d="M1366.68 124.206L1361.59 116.529L1369.55 111.259L1374.64 118.936L1366.68 124.206ZM1379.17 118.387L1371.84 107.296C1371.21 106.354 1369.95 106.093 1369 106.721L1357.64 114.241C1356.7 114.855 1356.43 116.124 1357.06 117.066L1364.39 128.156C1365.01 129.098 1366.28 129.359 1367.22 128.732L1378.59 121.212C1379.53 120.584 1379.79 119.315 1379.17 118.373V118.387ZM1426.8 215.05L1372.46 132.956L1380.42 127.685L1434.77 209.779L1426.8 215.05ZM1439.29 209.23L1382.7 123.723C1382.07 122.781 1380.8 122.519 1379.86 123.147L1368.49 130.667C1367.55 131.295 1367.29 132.564 1367.92 133.505L1424.51 219.013C1425.14 219.954 1426.41 220.216 1427.35 219.588L1438.72 212.068C1439.66 211.44 1439.92 210.171 1439.29 209.23ZM1399.9 114.79L1404.98 122.467L1397.02 127.738L1391.93 120.061L1399.9 114.79ZM1387.39 120.61L1394.72 131.7C1395.35 132.642 1396.61 132.904 1397.56 132.276L1408.93 124.743C1409.88 124.115 1410.14 122.846 1409.51 121.905L1402.19 110.814C1401.56 109.872 1400.29 109.611 1399.35 110.239L1387.97 117.772C1387.03 118.4 1386.77 119.668 1387.39 120.61ZM1413.72 135.689L1418.81 143.366L1410.84 148.637L1405.76 140.96L1413.72 135.689ZM1401.22 141.509L1408.54 152.6C1409.17 153.542 1410.44 153.803 1411.38 153.175L1422.76 145.642C1423.7 145.014 1423.96 143.759 1423.34 142.817L1416.01 131.727C1415.38 130.785 1414.11 130.523 1413.17 131.151L1401.79 138.684C1400.85 139.299 1400.59 140.568 1401.22 141.509ZM1424.59 152.103L1429.68 159.78L1421.71 165.051L1416.63 157.374L1424.59 152.103ZM1412.09 157.923L1419.41 169.013C1420.04 169.955 1421.31 170.217 1422.25 169.589L1433.63 162.056C1434.57 161.428 1434.83 160.159 1434.2 159.218L1426.88 148.127C1426.25 147.185 1424.98 146.924 1424.04 147.552L1412.66 155.085C1411.72 155.7 1411.46 156.968 1412.09 157.91V157.923ZM1438.43 173.002L1443.52 180.679L1435.55 185.95L1430.46 178.273L1438.43 173.002ZM1425.92 178.822L1433.25 189.913C1433.88 190.855 1435.15 191.116 1436.09 190.488L1447.47 182.955C1448.41 182.327 1448.67 181.059 1448.04 180.117L1440.72 169.026C1440.09 168.085 1438.82 167.823 1437.88 168.451L1426.5 175.984C1425.56 176.612 1425.3 177.881 1425.92 178.822ZM1446.41 202.364L1441.32 194.686L1449.28 189.416L1454.37 197.093L1446.41 202.364ZM1458.91 196.544L1451.59 185.453C1450.96 184.511 1449.69 184.25 1448.75 184.878L1437.37 192.411C1436.43 193.026 1436.17 194.294 1436.79 195.236L1444.12 206.326C1444.75 207.268 1446.01 207.53 1446.96 206.902L1458.34 199.369C1459.28 198.754 1459.54 197.485 1458.91 196.544Z" stroke="#1D1D1B" stroke-width="1.5" stroke-miterlimit="10"/>
<path d="M1460.24 223.263L1455.16 215.586L1463.12 210.315L1468.21 217.992L1460.24 223.263ZM1472.75 217.443L1465.41 206.353C1464.78 205.411 1463.51 205.149 1462.57 205.777L1451.19 213.31C1450.25 213.938 1449.99 215.207 1450.62 216.148L1457.96 227.239C1458.58 228.181 1459.85 228.442 1460.79 227.814L1472.17 220.281C1473.12 219.666 1473.38 218.398 1472.75 217.456V217.443Z" stroke="#1D1D1B" stroke-width="1.5" stroke-miterlimit="10"/>
<path d="M1471.11 239.677L1466.03 231.999L1473.99 226.729L1479.08 234.406L1471.11 239.677ZM1483.62 233.857L1476.29 222.766C1475.67 221.824 1474.4 221.563 1473.46 222.191L1462.08 229.724C1461.13 230.352 1460.87 231.62 1461.5 232.562L1468.83 243.652C1469.45 244.594 1470.72 244.856 1471.66 244.228L1483.04 236.695C1483.98 236.08 1484.25 234.811 1483.62 233.87V233.857ZM1483.2 257.947L1478.11 250.27L1486.08 245L1491.16 252.677L1483.2 257.947ZM1495.7 252.127L1488.38 241.037C1487.75 240.095 1486.48 239.834 1485.54 240.461L1474.16 247.994C1473.22 248.609 1472.96 249.878 1473.59 250.819L1480.91 261.91C1481.54 262.852 1482.81 263.113 1483.75 262.485L1495.13 254.952C1496.07 254.324 1496.33 253.056 1495.7 252.114V252.127ZM1476.53 290.97L1471.45 283.293L1499.25 264.905L1504.34 272.582L1476.54 290.984L1476.53 290.97ZM1508.86 272.02L1501.54 260.929C1500.91 259.987 1499.64 259.726 1498.7 260.354L1467.49 281.005C1466.55 281.632 1466.29 282.901 1466.92 283.83L1474.24 294.92C1474.85 295.862 1476.12 296.123 1477.07 295.496L1508.27 274.845C1509.21 274.23 1509.48 272.961 1508.85 272.02H1508.86ZM1440.77 236.158L1435.68 228.481L1443.65 223.211L1448.74 230.888L1440.77 236.158ZM1453.27 230.339L1445.95 219.248C1445.32 218.306 1444.05 218.045 1443.11 218.672L1431.75 226.206C1430.8 226.82 1430.54 228.089 1431.17 229.031L1438.49 240.121C1439.12 241.063 1440.39 241.324 1441.33 240.697L1452.7 233.177C1453.64 232.549 1453.9 231.28 1453.27 230.339Z" stroke="#1D1D1B" stroke-width="1.5" stroke-miterlimit="10"/>
<path d="M1451.64 252.572L1446.55 244.895L1454.52 239.624L1459.6 247.301L1451.64 252.572ZM1464.14 246.752L1456.81 235.661C1456.18 234.72 1454.91 234.458 1453.97 235.086L1442.6 242.606C1441.66 243.221 1441.4 244.489 1442.03 245.431L1449.36 256.522C1449.99 257.463 1451.26 257.725 1452.2 257.097L1463.57 249.577C1464.51 248.949 1464.77 247.681 1464.14 246.739V246.752Z" stroke="#1D1D1B" stroke-width="1.5" stroke-miterlimit="10"/>
<path d="M1463.72 270.83L1458.64 263.152L1466.6 257.882L1471.69 265.559L1463.72 270.83ZM1476.23 265.01L1468.89 253.919C1468.26 252.977 1466.99 252.716 1466.05 253.344L1454.69 260.864C1453.74 261.478 1453.48 262.747 1454.11 263.689L1461.45 274.779C1462.08 275.721 1463.34 275.982 1464.29 275.355L1475.65 267.835C1476.59 267.207 1476.86 265.938 1476.23 264.997V265.01Z" stroke="#1D1D1B" stroke-width="1.5" stroke-miterlimit="10"/>
<path d="M1534.94 240.056L1540.03 247.733L1532.06 253.004L1526.98 245.326L1534.94 240.056ZM1522.44 245.876L1529.76 256.966C1530.39 257.908 1531.66 258.17 1532.6 257.542L1543.98 250.009C1544.92 249.381 1545.18 248.112 1544.55 247.171L1537.23 236.08C1536.6 235.138 1535.33 234.877 1534.39 235.504L1523.01 243.025C1522.07 243.652 1521.81 244.921 1522.44 245.863V245.876ZM1381.44 49.7245L1386.53 57.4015L1378.56 62.6722L1373.48 54.9951L1381.44 49.7245ZM1368.94 55.5444L1376.26 66.635C1376.89 67.5766 1378.16 67.8382 1379.1 67.2104L1390.47 59.6903C1391.41 59.0625 1391.67 57.7939 1391.04 56.8522L1383.7 45.7617C1383.08 44.82 1381.81 44.5585 1380.87 45.1862L1369.5 52.7064C1368.56 53.3341 1368.3 54.6027 1368.92 55.5444H1368.94ZM1371.89 89.7839L1356.37 66.3342L1364.33 61.0635L1379.86 84.5133L1371.89 89.7839ZM1384.4 83.964L1366.61 57.1007C1365.98 56.1591 1364.71 55.8975 1363.77 56.5253L1352.39 64.0585C1351.45 64.6863 1351.19 65.9549 1351.82 66.8835L1369.59 93.7467C1370.22 94.6883 1371.49 94.9499 1372.43 94.3221L1383.81 86.7889C1384.75 86.1742 1385.01 84.9056 1384.38 83.964H1384.4ZM1352.42 102.679L1336.89 79.2296L1344.86 73.9589L1360.38 97.4087L1352.42 102.679ZM1364.91 96.8594L1347.12 69.9961C1346.49 69.0545 1345.23 68.7929 1344.28 69.4207L1332.92 76.9408C1331.98 77.5686 1331.71 78.8372 1332.34 79.7788L1350.13 106.642C1350.76 107.584 1352.03 107.845 1352.97 107.218L1364.33 99.6974C1365.28 99.0696 1365.54 97.801 1364.91 96.8594ZM1389.45 79.0857L1384.36 71.4086L1392.32 66.138L1397.41 73.8151L1389.45 79.0857ZM1401.94 73.2658L1394.61 62.1752C1393.99 61.2335 1392.72 60.972 1391.77 61.5997L1380.41 69.1199C1379.47 69.7476 1379.21 71.0163 1379.83 71.9579L1387.17 83.0485C1387.8 83.9901 1389.07 84.2517 1390.01 83.6239L1401.37 76.1038C1402.32 75.476 1402.58 74.2074 1401.95 73.2658H1401.94Z" stroke="#1D1D1B" stroke-width="1.5" stroke-miterlimit="10"/>
<path d="M1403.27 99.972L1398.18 92.2949L1406.15 87.0243L1411.24 94.7014L1403.27 99.972ZM1415.78 94.1652L1408.44 83.0746C1407.81 82.133 1406.54 81.8714 1405.6 82.4992L1394.23 90.0193C1393.29 90.6471 1393.03 91.9157 1393.66 92.8573L1401 103.948C1401.62 104.89 1402.89 105.151 1403.83 104.523L1415.2 96.9901C1416.14 96.3754 1416.4 95.1068 1415.78 94.1652Z" stroke="#1D1D1B" stroke-width="1.5" stroke-miterlimit="10"/>
<path d="M1417.02 103.451L1422.11 111.128L1414.14 116.399L1409.05 108.722L1417.02 103.451ZM1404.53 109.271L1411.86 120.361C1412.49 121.303 1413.76 121.565 1414.7 120.937L1426.07 113.404C1427.01 112.776 1427.27 111.507 1426.64 110.566L1419.31 99.4751C1418.68 98.5334 1417.41 98.2718 1416.47 98.8996L1405.1 106.42C1404.16 107.048 1403.9 108.316 1404.53 109.258V109.271Z" stroke="#1D1D1B" stroke-width="1.5" stroke-miterlimit="10"/>
<path d="M1430.86 124.35L1435.94 132.027L1427.98 137.298L1422.89 129.621L1430.86 124.35ZM1418.35 130.17L1425.68 141.261C1426.3 142.202 1427.57 142.464 1428.51 141.836L1439.89 134.303C1440.84 133.675 1441.1 132.407 1440.47 131.465L1433.13 120.374C1432.5 119.433 1431.24 119.171 1430.29 119.799L1418.93 127.332C1417.99 127.947 1417.72 129.216 1418.35 130.157H1418.37L1418.35 130.17ZM1441.72 140.764L1446.81 148.441L1438.85 153.712L1433.76 146.034L1441.72 140.764ZM1429.22 146.584L1436.55 157.674C1437.17 158.616 1438.44 158.878 1439.38 158.25L1450.75 150.73C1451.69 150.102 1451.95 148.833 1451.32 147.892L1443.99 136.801C1443.36 135.859 1442.09 135.598 1441.15 136.226L1429.78 143.759C1428.84 144.374 1428.58 145.642 1429.21 146.584H1429.22Z" stroke="#1D1D1B" stroke-width="1.5" stroke-miterlimit="10"/>
<path d="M1455.55 161.663L1460.64 169.34L1452.67 174.611L1447.58 166.934L1455.55 161.663ZM1443.06 167.483L1450.4 178.574C1451.02 179.515 1452.29 179.777 1453.23 179.149L1464.6 171.616C1465.54 170.988 1465.8 169.72 1465.18 168.778L1457.84 157.687C1457.21 156.746 1455.94 156.484 1455 157.112L1443.63 164.632C1442.69 165.26 1442.43 166.529 1443.06 167.47V167.483Z" stroke="#1D1D1B" stroke-width="1.5" stroke-miterlimit="10"/>
<path d="M1463.54 191.025L1458.45 183.347L1466.42 178.077L1471.51 185.754L1463.54 191.025ZM1476.04 185.205L1468.71 174.114C1468.08 173.172 1466.81 172.911 1465.87 173.539L1454.5 181.072C1453.56 181.7 1453.3 182.968 1453.93 183.91L1461.27 195C1461.89 195.942 1463.16 196.204 1464.1 195.576L1475.47 188.043C1476.41 187.428 1476.67 186.159 1476.04 185.218V185.205Z" stroke="#1D1D1B" stroke-width="1.5" stroke-miterlimit="10"/>
<path d="M1477.38 211.924L1472.29 204.247L1480.26 198.976L1485.34 206.653L1477.38 211.924ZM1489.87 206.104L1482.53 195.013C1481.9 194.072 1480.64 193.81 1479.69 194.438L1468.33 201.958C1467.39 202.586 1467.12 203.855 1467.75 204.796L1475.09 215.887C1475.72 216.828 1476.99 217.09 1477.93 216.462L1489.29 208.929C1490.24 208.314 1490.5 207.046 1489.87 206.104Z" stroke="#1D1D1B" stroke-width="1.5" stroke-miterlimit="10"/>
<path d="M1488.25 228.338L1483.16 220.66L1491.13 215.39L1496.21 223.067L1488.25 228.338ZM1500.74 222.518L1493.41 211.427C1492.79 210.485 1491.52 210.224 1490.58 210.852L1479.21 218.385C1478.27 219.013 1478.01 220.268 1478.63 221.21L1485.97 232.3C1486.6 233.242 1487.87 233.504 1488.81 232.876L1500.18 225.343C1501.12 224.728 1501.38 223.459 1500.75 222.518H1500.74ZM1503.26 233.739L1520.92 260.393L1512.95 265.664L1495.3 239.01L1503.26 233.739ZM1490.76 239.559L1510.65 269.626C1511.28 270.568 1512.55 270.83 1513.49 270.202L1524.86 262.682C1525.8 262.054 1526.06 260.785 1525.43 259.844L1505.53 229.776C1504.91 228.835 1503.64 228.573 1502.7 229.201L1491.33 236.721C1490.39 237.349 1490.13 238.617 1490.76 239.559ZM1.00711 370.618C1.15099 369.428 1.96191 368.408 3.08673 367.99L204.679 293.717C206.222 293.141 207.962 293.835 208.681 295.326C240.987 360.443 231.4 438.548 184.288 493.909C183.229 495.178 181.385 495.427 180.011 494.498L2.39352 373.666C1.39949 372.986 0.86324 371.809 1.00711 370.618Z" stroke="#1D1D1B" stroke-width="1.5" stroke-miterlimit="10"/>
<path d="M1.00711 370.618C1.15099 369.428 1.96191 368.408 3.08673 367.99L241.327 280.207C242.871 279.631 244.61 280.338 245.33 281.815C283.417 358.56 272.103 450.62 216.581 515.868C215.522 517.137 213.677 517.385 212.304 516.457L2.39352 373.666C1.39949 372.986 0.86324 371.809 1.00711 370.618Z" stroke="#1D1D1B" stroke-width="1.5" stroke-miterlimit="10"/>
<path d="M193.457 342.853C194.215 336.693 189.834 331.095 183.687 330.337C177.526 329.578 171.928 333.959 171.17 340.106C170.411 346.266 174.793 351.864 180.94 352.622C187.087 353.368 192.685 349 193.457 342.84V342.853ZM164.787 339.322C165.977 329.644 174.793 322.751 184.471 323.941C194.15 325.131 201.043 333.946 199.853 343.624C198.662 353.303 189.847 360.195 180.168 359.005C170.489 357.802 163.61 349 164.787 339.322ZM146.031 418.878C146.855 412.234 142.12 406.179 135.476 405.368C128.832 404.557 122.776 409.279 121.965 415.922C121.141 422.566 125.876 428.622 132.52 429.432C139.164 430.243 145.207 425.522 146.031 418.878ZM115.582 415.138C116.825 404.963 126.085 397.73 136.261 398.973C146.436 400.215 153.669 409.475 152.427 419.65C151.184 429.825 141.924 437.057 131.748 435.815C121.586 434.559 114.353 425.313 115.595 415.138H115.582ZM186.852 394.513C186.42 398.044 182.692 399.195 179.096 400.294C176.951 400.791 174.923 401.654 173.066 402.844C172.975 405.054 178.376 410.73 180.848 412.064C182.235 411.096 185.073 407.434 187.153 403.851C188.042 402.321 190.017 401.798 191.547 402.687C191.966 402.935 192.319 403.262 192.594 403.668L198.035 411.593C202.377 408.441 205.307 403.694 206.157 398.384C206.588 394.788 205.634 391.165 203.476 388.261C196.74 378.753 186.917 381.827 182.339 384.024L186.263 391.505C186.773 392.42 186.982 393.467 186.865 394.513H186.852ZM166.683 401.968C166.853 400.477 167.573 399.117 168.698 398.123C171.026 396.056 174.309 395.049 177.199 394.147C178.023 393.885 179.096 393.558 179.907 393.257L175.185 384.233C174.426 382.781 174.884 380.977 176.244 380.061C183.124 375.471 198.767 370.488 208.72 384.534C211.82 388.732 213.194 393.977 212.54 399.156C211.336 408.952 203.554 417.008 198.728 418.237C196.923 418.826 194.935 418.211 193.797 416.694C192.528 414.915 191.273 413.111 190.043 411.306C186.211 416.825 182.745 419.244 179.737 418.499C175.76 417.505 165.899 408.585 166.709 401.955L166.683 401.968ZM78.3977 359.554C74.0553 362.706 71.1386 367.453 70.2754 372.763C69.8438 376.36 70.7986 379.983 72.9567 382.886C79.6533 392.342 89.489 389.295 94.0929 387.11L90.1822 379.643C89.6721 378.727 89.4628 377.681 89.5805 376.635C90.0121 373.103 93.7398 371.952 97.3366 370.854C99.4816 370.357 101.509 369.494 103.366 368.304C103.445 366.08 98.0559 360.404 95.597 359.083C94.1975 360.051 91.3724 363.713 89.2928 367.297C88.4034 368.827 86.4284 369.35 84.8981 368.461C84.4796 368.212 84.1133 367.885 83.8387 367.48L78.3977 359.554ZM63.8927 371.966C65.096 362.17 72.8782 354.126 77.7045 352.884C79.5094 352.295 81.4844 352.91 82.6485 354.427L86.4022 359.816C90.2476 354.296 93.7005 351.89 96.7088 352.622C100.685 353.616 110.547 362.536 109.736 369.154C109.566 370.645 108.846 372.005 107.722 372.999C105.393 375.078 102.111 376.085 99.22 376.975C98.4091 377.236 97.3235 377.55 96.5257 377.864L101.247 386.888C102.006 388.34 101.548 390.145 100.188 391.047C93.3081 395.638 77.6652 400.621 67.7118 386.574C64.612 382.376 63.2387 377.132 63.8927 371.952V371.966ZM147.627 352.688L144.553 354.663L144.383 362.994L151.878 358.652L147.627 352.675V352.688ZM138.183 352.505C138.301 351.55 138.824 350.713 139.635 350.19L146.724 345.625C148.176 344.697 150.086 345.063 151.08 346.462L159.15 357.815C160.183 359.266 159.843 361.267 158.391 362.301C158.313 362.353 158.234 362.405 158.143 362.457L142.643 371.429C141.1 372.319 139.138 371.796 138.249 370.252C137.948 369.742 137.804 369.167 137.817 368.578L138.144 352.819L138.17 352.492L138.183 352.505ZM180.011 444.525L171.667 444.355L176.009 451.849L181.986 447.598L180.011 444.525ZM162.825 440.628C162.877 440.183 163.021 439.764 163.243 439.385C163.832 438.378 164.918 437.777 166.082 437.803L181.842 438.13C182.915 438.156 183.896 438.705 184.484 439.594L189.049 446.683C189.978 448.122 189.611 450.044 188.212 451.038L176.859 459.108C175.407 460.141 173.406 459.788 172.373 458.349C172.321 458.271 172.268 458.192 172.216 458.101L163.23 442.603C162.877 442.001 162.733 441.295 162.825 440.602V440.628ZM1018.35 322.032H576.839C576.839 322.032 576.839 338.707 593.502 338.707H1052.72C1069.45 338.707 1069.45 322.032 1069.45 322.032H1018.35ZM648.043 83.2054H998.217V293.128H648.043V83.2054ZM1018.35 312.537C1019 310.967 1019.34 309.28 1019.35 307.567V75.463C1019.3 68.1128 1013.34 62.1752 1005.99 62.149H640.261C632.91 62.1621 626.946 68.1128 626.907 75.463V307.58C626.907 309.28 627.26 310.967 627.914 312.55H1018.36L1018.35 312.537Z" stroke="#1D1D1B" stroke-width="1.5" stroke-miterlimit="10"/>
<path d="M539.105 129.307C528.537 132.041 520.192 135.271 516.687 139.011C510.33 145.812 508.015 155.046 509.807 166.463C511.991 180.274 510.03 191.299 504.013 199.212C499.448 204.979 493.039 208.994 485.859 210.616L485.323 208.223C485.048 207.006 483.845 206.248 482.628 206.523L474.375 208.38C465.089 179.542 435.346 162.527 405.774 169.144L355.994 180.352C324.473 187.585 304.788 218.999 312.021 250.506C319.215 281.842 350.331 301.512 381.721 294.58L431.501 283.372C460.027 276.911 479.437 250.401 476.965 221.249L485.519 219.326C486.735 219.052 487.494 217.849 487.219 216.632L486.853 215.024C495.054 213.193 502.365 208.602 507.571 201.997C514.398 193.065 516.648 180.876 514.267 165.77C512.698 155.804 514.62 147.852 519.97 142.098C522.9 138.959 530.133 136.173 539.458 133.754M408.704 283.882C406.559 279.474 400.019 264.473 392.747 232.091C385.279 198.911 388.169 181.87 389.189 177.501L406.781 173.539C435.87 166.842 464.88 185.008 471.563 214.095C478.26 243.182 460.093 272.19 431.004 278.873C430.847 278.912 430.677 278.951 430.52 278.977L408.691 283.882H408.704ZM380.74 290.173C351.652 296.869 322.642 278.703 315.958 249.616C309.261 220.53 327.429 191.522 356.517 184.838C356.674 184.799 356.844 184.76 357.001 184.734L384.337 178.574C383.029 185.584 381.525 202.769 388.352 233.059C395.284 263.833 401.536 279.174 404.205 284.876L380.753 290.16L380.74 290.173ZM481.425 211.401L482.341 215.416L476.52 216.724L475.605 212.709L481.425 211.401ZM431.671 232.405C427.551 233.333 423.47 230.744 422.542 226.624C421.613 222.504 424.203 218.424 428.323 217.495L446.699 213.363C450.806 212.395 454.926 214.945 455.881 219.052C456.836 223.158 454.298 227.278 450.192 228.233C450.139 228.233 450.1 228.259 450.048 228.259L431.658 232.392L431.671 232.405ZM460.236 218.149C458.759 211.61 452.258 207.503 445.718 208.968L427.329 213.101C420.789 214.618 416.721 221.144 418.239 227.67C419.743 234.144 426.165 238.212 432.665 236.799L451.055 232.666C457.594 231.189 461.701 224.689 460.236 218.149Z" stroke="#1D1D1B" stroke-width="1.5" stroke-miterlimit="10"/>
<path d="M539.471 133.767C569.946 125.881 624.683 121.748 624.892 121.761C626.135 121.865 627.221 120.95 627.338 119.721C627.365 119.485 627.338 119.237 627.299 119.014C627.09 118.06 626.279 117.366 625.298 117.288C624.395 117.209 570.849 121.12 539.105 129.32M1332.51 413.006L1333.22 413.202C1333.22 413.202 1332.96 413.15 1332.51 413.006Z" stroke="#1D1D1B" stroke-width="1.5" stroke-miterlimit="10"/>
<path d="M1299.57 312.105C1299.57 312.105 1329.61 320.005 1325.19 340.342C1329.05 341.1 1353.79 347.221 1333.24 376.739C1313.44 405.172 1328.92 411.894 1332.54 413.032C1326.91 411.436 1290.27 399.94 1315.57 376.739C1342.39 352.152 1331.99 347.286 1325.11 340.669C1323.75 346.489 1319.58 353.329 1311.09 361.28C1273.47 396.514 1311.09 410.456 1311.09 410.456C1311.09 410.456 1247.09 391.086 1287.28 361.28C1327.23 331.658 1306.85 321.888 1299.58 312.105M1387.77 446.67C1385.58 443.139 1381.3 441.138 1376.34 440.863C1376.12 442.04 1372.61 460.716 1368.51 468.563C1371.96 468.419 1375.33 467.556 1378.43 466.013C1387.47 461.566 1391.66 452.908 1387.77 446.657V446.67ZM1366.24 468.485L1366.22 468.55L1367.19 468.602L1366.24 468.498V468.485Z" stroke="#1D1D1B" stroke-width="1.5" stroke-miterlimit="10"/>
<path d="M1231.83 419.519H1378.45C1378.34 423.835 1378.07 428.072 1377.62 432.244C1385.94 431.865 1393.41 435.135 1396.98 441.609C1402.54 451.653 1396.56 465.594 1383.64 472.735C1377.99 475.966 1371.46 477.326 1364.99 476.659C1362.25 482.204 1359.01 487.501 1355.34 492.484H1254.95C1241.24 474.095 1232.48 448.279 1231.84 419.519" stroke="#1D1D1B" stroke-width="1.5" stroke-miterlimit="10"/>
<rect x="1557" y="432" width="178" height="128" fill="#006793"/>
</g>
<defs>
<clipPath id="clip0_4_2">
<rect width="1615" height="518" fill="white"/>
</clipPath>
</defs>
</svg>
